<svg xmlns="http://www.w3.org/2000/svg"  viewBox="0 0 24 24" width="24px" height="24px"><path d="M 6 3 C 4.3550302 3 3 4.3550302 3 6 L 3 18 C 3 19.64497 4.3550302 21 6 21 L 18 21 C 19.64497 21 21 19.64497 21 18 L 21 6 C 21 4.3550302 19.64497 3 18 3 L 6 3 z M 6 5 L 18 5 C 18.56503 5 19 5.4349698 19 6 L 19 18 C 19 18.56503 18.56503 19 18 19 L 6 19 C 5.4349698 19 5 18.56503 5 18 L 5 6 C 5 5.4349698 5.4349698 5 6 5 z M 10.267578 8 C 10.099578 8 9.9435625 8.0836562 9.8515625 8.2226562 L 9.5 9 L 9 9 C 9 8.724 8.776 8.5 8.5 8.5 C 8.224 8.5 8 8.724 8 9 C 7.448 9 7 9.448 7 10 L 7 15 C 7 15.552 7.448 16 8 16 L 16 16 C 16.552 16 17 15.552 17 15 L 17 10 C 17 9.448 16.552 9 16 9 L 14.5 9 L 14.148438 8.2226562 C 14.055437 8.0836562 13.899422 8 13.732422 8 L 10.267578 8 z M 12 10 C 13.379 10 14.5 11.121 14.5 12.5 C 14.5 13.879 13.379 15 12 15 C 10.621 15 9.5 13.879 9.5 12.5 C 9.5 11.121 10.621 10 12 10 z M 15.5 10 C 15.776 10 16 10.224 16 10.5 C 16 10.776 15.776 11 15.5 11 C 15.224 11 15 10.776 15 10.5 C 15 10.224 15.224 10 15.5 10 z M 12 11 A 1.5 1.5 0 0 0 12 14 A 1.5 1.5 0 0 0 12 11 z"/></svg>